<?xml version="1.0" standalone="no"?>
<!DOCTYPE svg PUBLIC "-//W3C//DTD SVG 20010904//EN"
 "http://www.w3.org/TR/2001/REC-SVG-20010904/DTD/svg10.dtd">
<svg version="1.0" xmlns="http://www.w3.org/2000/svg"
 width="4096.000000pt" height="4096.000000pt" viewBox="0 0 4096.000000 4096.000000"
 preserveAspectRatio="xMidYMid meet">

<g transform="translate(0.000000,4096.000000) scale(0.100000,-0.100000)"
fill="#00000035" stroke="none">
<path d="M2600 34065 l0 -4295 4295 0 4295 0 0 4295 0 4295 -4295 0 -4295 0 0
-4295z m7370 0 l0 -3075 -3075 0 -3075 0 0 3075 0 3075 3075 0 3075 0 0 -3075z"/>
<path d="M5050 34065 l0 -1845 1845 0 1845 0 0 1845 0 1845 -1845 0 -1845 0 0
-1845z"/>
<path d="M14077 38334 c-155 -50 -290 -169 -362 -319 -45 -95 -60 -163 -59
-270 1 -171 66 -318 195 -440 79 -74 190 -134 287 -154 36 -7 279 -11 749 -11
762 0 751 -1 878 60 254 122 394 416 329 690 -50 216 -228 400 -440 455 -50
13 -163 15 -779 15 l-720 -1 -78 -25z"/>
<path d="M21450 38334 c-41 -14 -100 -41 -131 -60 -78 -47 -182 -160 -223
-242 -63 -125 -66 -151 -66 -539 l0 -350 -112 -12 c-287 -29 -533 -141 -735
-333 -151 -145 -258 -312 -322 -504 -58 -171 -62 -228 -59 -701 l3 -428 27
-75 c86 -235 296 -392 543 -407 114 -6 210 13 314 64 101 50 212 159 264 259
67 131 70 149 75 547 l4 357 608 0 608 0 5 -357 c4 -288 8 -369 20 -413 67
-228 246 -399 468 -446 86 -19 226 -14 302 10 193 61 336 198 409 393 21 55
23 79 28 433 l5 375 705 6 c758 6 740 4 910 60 365 120 668 429 784 797 50
158 56 233 56 663 0 442 -5 485 -72 612 -71 134 -235 263 -384 302 -74 19
-241 19 -314 0 -201 -53 -368 -216 -436 -425 -15 -48 -18 -104 -22 -417 l-4
-363 -1228 0 -1229 0 -3 378 -3 377 -27 67 c-74 184 -212 317 -390 373 -113
36 -271 35 -378 -1z"/>
<path d="M27615 38341 c-188 -54 -344 -202 -413 -393 l-27 -73 -3 -705 c-3
-794 -4 -784 70 -931 99 -198 315 -329 543 -329 265 0 500 172 588 430 22 64
22 73 25 761 3 786 4 781 -69 928 -76 153 -221 272 -389 316 -76 20 -248 18
-325 -4z"/>
<path d="M29630 34065 l0 -4295 4300 0 4300 0 0 4295 0 4295 -4300 0 -4300 0
0 -4295z m7370 0 l0 -3075 -3070 0 -3070 0 0 3075 0 3075 3070 0 3070 0 0
-3075z"/>
<path d="M32090 34065 l0 -1845 1840 0 1840 0 0 1845 0 1845 -1840 0 -1840 0
0 -1845z"/>
<path d="M12946 37130 c-236 -42 -417 -197 -493 -423 l-28 -82 0 -710 c0 -658
1 -715 18 -775 64 -225 247 -399 468 -446 188 -40 394 15 543 146 56 50 125
152 160 238 l31 77 3 722 c3 811 4 793 -69 933 -72 138 -202 248 -350 295 -88
28 -209 38 -283 25z"/>
<path d="M17855 37130 c-63 -11 -149 -43 -212 -77 -80 -44 -195 -168 -237
-256 -60 -124 -66 -170 -66 -548 l0 -335 -112 -12 c-505 -53 -911 -382 -1062
-859 -25 -81 -56 -260 -56 -327 l0 -36 -337 0 c-381 0 -428 -6 -549 -66 -86
-42 -187 -131 -240 -211 -21 -31 -51 -96 -68 -143 -26 -75 -30 -98 -30 -195 0
-97 4 -120 30 -195 66 -189 202 -323 394 -391 62 -22 80 -23 433 -27 l367 -3
0 -330 c0 -374 7 -435 67 -556 41 -85 130 -186 210 -239 31 -21 96 -51 143
-68 75 -27 98 -30 195 -30 92 1 123 5 190 27 204 68 366 247 410 454 12 56 15
229 15 1019 l0 951 88 7 c480 35 903 355 1067 806 63 173 68 217 72 665 5 469
2 503 -68 645 -72 147 -216 266 -379 314 -67 20 -199 28 -265 16z"/>
<path d="M19051 34665 c-216 -49 -381 -202 -457 -425 -27 -78 -27 -272 0 -350
61 -179 172 -306 332 -382 339 -160 740 28 850 397 24 81 24 239 0 320 -45
150 -162 302 -286 372 -128 72 -302 99 -439 68z"/>
<path d="M23955 34660 c-93 -24 -137 -44 -206 -91 -111 -75 -207 -210 -245
-345 -14 -49 -18 -120 -22 -416 l-4 -358 -336 0 c-256 0 -353 -4 -406 -15
-175 -37 -337 -165 -414 -326 -51 -109 -64 -163 -63 -279 1 -270 172 -498 441
-586 48 -15 103 -18 417 -22 l361 -4 4 -356 c4 -356 4 -357 32 -439 85 -259
317 -428 586 -427 170 0 302 55 425 179 92 92 136 166 165 281 19 75 20 115
20 1383 0 1434 2 1367 -61 1494 -64 130 -157 222 -284 283 -132 63 -279 79
-410 44z"/>
<path d="M20310 33443 c-95 -16 -230 -81 -306 -148 -68 -59 -138 -163 -172
-255 l-27 -75 -5 -370 -5 -370 -370 -5 c-348 -5 -373 -7 -428 -27 -256 -96
-408 -293 -424 -549 -11 -181 46 -333 177 -466 60 -61 93 -85 161 -118 134
-64 177 -70 557 -70 l332 0 -2 -612 -3 -613 -612 -3 -611 -2 -4 367 c-5 414
-7 432 -86 561 -77 129 -195 226 -327 268 -351 114 -705 -78 -795 -432 -18
-69 -20 -112 -20 -421 l0 -343 -612 2 -613 3 -6 705 c-5 670 -6 709 -26 790
-115 468 -442 801 -912 928 -95 26 -100 26 -530 30 -375 3 -443 1 -507 -13
-251 -56 -442 -267 -474 -524 -32 -253 103 -507 330 -618 134 -66 189 -73 565
-73 l325 0 0 -615 0 -615 -64 0 c-80 0 -207 -23 -311 -57 -395 -128 -702 -451
-809 -851 -129 -482 50 -999 453 -1302 85 -65 254 -151 359 -184 174 -54 199
-56 928 -56 l674 0 0 -614 0 -613 -112 -12 c-148 -15 -279 -51 -406 -111 -268
-128 -453 -310 -583 -575 -69 -141 -105 -266 -120 -422 l-12 -113 -613 0 -614
0 0 59 c0 32 -7 97 -15 144 -87 502 -451 881 -960 1000 -89 21 -109 21 -1397
24 l-1308 4 0 614 0 615 968 0 c814 0 976 3 1022 15 168 44 326 173 398 325
48 101 62 163 62 270 0 105 -14 168 -61 269 -54 117 -159 222 -279 279 -149
70 -87 67 -1205 67 -1099 0 -1095 0 -1275 -57 -381 -121 -679 -417 -803 -799
-30 -90 -57 -242 -57 -316 l0 -53 -615 0 -615 0 0 333 c0 380 -6 424 -71 556
-73 148 -209 261 -371 308 -284 82 -589 -49 -717 -308 -65 -132 -71 -176 -71
-556 l0 -333 -325 0 c-374 0 -429 -7 -563 -71 -163 -78 -289 -242 -327 -424
-19 -90 -19 -148 1 -243 45 -220 186 -378 414 -466 54 -21 64 -21 1043 -24
l987 -3 0 -614 0 -615 -338 0 c-378 0 -430 -7 -562 -72 -96 -48 -216 -171
-264 -270 -87 -181 -86 -369 2 -548 52 -107 170 -224 272 -273 131 -61 177
-67 554 -67 l336 0 0 -1230 0 -1230 -59 0 c-127 0 -328 -50 -469 -117 -179
-85 -369 -245 -480 -406 -66 -96 -144 -258 -172 -357 -43 -155 -50 -244 -50
-646 0 -346 2 -388 20 -458 29 -114 83 -209 165 -291 120 -120 255 -175 430
-175 175 0 310 55 431 176 53 53 82 91 113 155 65 132 71 176 71 556 l0 333
1588 2 1587 3 81 27 c258 88 425 313 426 578 1 113 -17 190 -68 292 -51 102
-163 212 -264 261 -144 70 -90 67 -1157 67 l-963 0 0 1229 0 1228 84 7 c431
33 808 281 1004 662 80 156 120 300 137 492 l7 72 1223 0 1224 0 5 -42 c27
-242 52 -342 125 -493 188 -390 551 -643 988 -687 l112 -12 4 -690 c3 -655 5
-696 24 -781 56 -244 166 -446 332 -615 213 -216 475 -336 797 -365 l72 -7 7
-76 c16 -179 57 -326 130 -472 152 -301 428 -531 750 -625 85 -24 152 -36 288
-50 l57 -6 0 -332 c0 -380 6 -424 71 -556 73 -148 207 -260 373 -310 146 -45
345 -21 481 58 121 69 222 194 272 336 l28 80 3 362 3 361 357 5 c300 3 367 7
417 21 279 81 472 350 451 632 -16 217 -137 405 -323 502 -131 68 -161 72
-555 72 l-348 0 0 615 0 615 615 0 615 0 0 -343 c0 -311 2 -351 20 -422 43
-168 167 -321 321 -395 88 -42 193 -70 267 -70 77 0 195 30 282 73 177 87 298
256 330 464 7 46 10 396 7 1073 -3 998 -3 1006 -25 1103 -117 512 -514 885
-1027 962 -55 8 -116 15 -136 15 l-35 0 -12 113 c-63 599 -512 1048 -1109
1108 l-113 12 0 1229 0 1228 613 -2 612 -3 5 -370 c5 -355 6 -373 28 -435 66
-184 201 -321 381 -388 90 -34 257 -42 351 -17 142 37 291 144 372 269 21 33
50 96 65 140 27 81 27 81 31 445 l4 363 956 -3 c1059 -4 1000 -8 1151 62 67
31 98 54 161 116 125 126 180 258 180 433 0 175 -55 307 -180 432 -58 59 -96
86 -153 113 -136 65 -147 67 -534 72 l-353 5 -2 1582 c-3 1477 -4 1585 -21
1640 -65 219 -243 390 -457 440 -60 15 -181 19 -240 9z m-2970 -9207 l0 -613
-86 -7 c-298 -23 -551 -137 -768 -346 -221 -213 -346 -481 -372 -793 l-7 -87
-613 0 -614 0 0 614 0 613 86 7 c615 47 1097 529 1141 1138 l6 88 613 0 614 0
0 -614z"/>
<path d="M26402 33430 c-102 -27 -185 -74 -267 -152 -80 -76 -125 -145 -163
-250 -22 -62 -26 -90 -26 -188 0 -100 4 -125 27 -194 35 -100 67 -154 134
-227 71 -76 148 -126 253 -163 l85 -31 725 0 725 0 85 31 c108 38 184 88 259
170 131 143 186 347 146 537 -25 118 -77 211 -169 302 -93 92 -167 136 -282
165 -73 19 -112 20 -768 19 -647 0 -696 -1 -764 -19z"/>
<path d="M12890 30974 c-201 -53 -375 -216 -439 -414 -51 -158 -22 -368 69
-510 174 -268 509 -359 799 -217 102 49 217 169 269 277 48 101 62 163 62 273
0 278 -192 523 -465 592 -74 19 -222 18 -295 -1z"/>
<path d="M22720 30974 c-213 -56 -391 -233 -445 -443 -19 -73 -22 -213 -6
-283 89 -393 513 -594 880 -416 93 45 216 169 265 265 122 243 77 523 -113
714 -83 83 -176 136 -286 164 -74 19 -222 18 -295 -1z"/>
<path d="M25177 30974 c-142 -34 -298 -149 -375 -276 -76 -127 -105 -281 -79
-423 54 -296 301 -505 597 -507 178 -2 314 55 441 182 384 385 108 1044 -435
1039 -50 0 -117 -7 -149 -15z"/>
<path d="M27640 30976 c-181 -47 -327 -165 -406 -330 -196 -407 96 -877 546
-879 108 0 174 15 279 65 161 77 288 242 326 423 63 301 -111 604 -405 706
-82 28 -257 36 -340 15z"/>
<path d="M23935 29741 c-155 -45 -291 -150 -370 -285 -13 -23 -36 -77 -51
-121 l-28 -80 -4 -357 -4 -357 -31 -5 c-18 -3 -64 -7 -103 -10 -247 -19 -534
-158 -728 -352 -210 -210 -331 -476 -356 -781 -6 -77 -10 -596 -10 -1332 l0
-1207 -112 -12 c-561 -60 -997 -465 -1094 -1016 -12 -68 -14 -349 -14 -1724 0
-1834 -6 -1695 71 -1842 71 -137 197 -242 354 -296 142 -48 328 -34 465 36
111 56 220 170 274 284 58 122 56 87 56 1138 l0 968 614 0 614 0 5 -357 c3
-283 7 -369 19 -410 55 -184 177 -328 343 -403 89 -41 159 -55 265 -54 110 2
217 32 311 90 82 49 180 158 223 246 63 129 66 153 66 540 l0 348 36 0 c133 0
380 63 516 131 383 193 644 584 675 1011 l6 88 1228 0 1229 0 0 -343 c0 -310
2 -351 20 -421 27 -106 73 -188 152 -271 76 -80 145 -125 250 -163 62 -22 90
-26 188 -26 100 0 125 4 193 27 199 69 341 218 404 422 16 54 18 101 18 490 0
467 -3 500 -61 675 -122 365 -423 662 -789 780 -177 56 -238 60 -954 60 l-651
0 0 2183 c0 2141 0 2185 -20 2261 -56 221 -218 387 -434 446 -110 31 -259 25
-365 -13 -149 -53 -273 -161 -340 -299 -75 -151 -71 -44 -71 -1784 l0 -1561
-107 -11 c-150 -15 -286 -53 -409 -111 -146 -70 -234 -131 -345 -241 -176
-175 -283 -371 -342 -625 -20 -85 -21 -125 -24 -782 l-4 -693 -615 0 -614 0 2
1843 3 1842 96 7 c490 35 917 373 1072 849 50 153 57 230 57 664 0 367 -2 408
-20 479 -28 112 -73 189 -160 277 -82 83 -175 136 -285 164 -80 20 -233 18
-310 -4z"/>
<path d="M28940 28530 c-147 -20 -255 -73 -360 -179 -129 -130 -187 -280 -177
-461 14 -271 200 -499 462 -565 75 -19 212 -19 293 0 334 79 543 438 446 767
-85 285 -376 477 -664 438z"/>
<path d="M35655 28530 c-478 -47 -882 -364 -1043 -822 -63 -178 -67 -219 -67
-688 0 -470 0 -468 68 -608 39 -80 145 -195 221 -241 128 -77 298 -109 434
-82 132 26 269 103 352 198 53 62 126 211 139 287 6 35 11 203 11 397 l0 338
378 3 c359 3 380 5 435 26 323 121 489 459 383 777 -66 195 -215 337 -416 396
-70 21 -97 22 -440 25 -201 1 -405 -2 -455 -6z"/>
<path d="M3112 27299 c-231 -40 -418 -202 -487 -420 -30 -95 -35 -248 -10
-342 36 -140 149 -294 269 -366 137 -82 313 -112 461 -77 223 53 404 230 460
451 18 70 20 202 4 277 -43 204 -218 395 -420 456 -80 25 -205 34 -277 21z"/>
<path d="M20319 27300 c-134 -21 -258 -88 -356 -193 -105 -113 -163 -260 -163
-412 1 -335 251 -597 585 -613 182 -8 327 48 457 178 223 222 245 551 54 808
-125 168 -366 265 -577 232z"/>
<path d="M30726 27300 c-279 -33 -515 -144 -715 -334 -249 -238 -381 -547
-381 -892 0 -502 307 -952 777 -1138 132 -52 246 -76 403 -82 537 -23 1020
304 1204 814 32 89 66 253 66 319 0 26 3 58 6 71 l6 22 342 0 c270 0 354 3
406 16 218 51 400 230 455 449 20 77 19 221 -1 298 -53 206 -203 365 -408 435
l-81 27 -1005 1 c-553 1 -1036 -2 -1074 -6z"/>
<path d="M4355 26073 c-191 -25 -378 -159 -464 -334 -211 -426 111 -916 583
-886 216 14 406 136 504 324 58 111 75 193 69 318 -8 168 -68 295 -194 415
-132 126 -318 187 -498 163z"/>
<path d="M3080 24834 c-219 -46 -409 -228 -464 -440 -21 -80 -21 -238 0 -318
80 -308 402 -508 714 -442 213 45 384 194 459 399 23 64 26 87 26 202 -1 110
-4 140 -24 195 -105 297 -408 470 -711 404z"/>
<path d="M32552 24830 c-220 -58 -392 -230 -447 -445 -8 -32 -15 -100 -15
-150 0 -50 7 -118 15 -150 55 -217 228 -388 451 -445 69 -18 112 -20 415 -20
l337 0 5 -357 c4 -396 6 -406 73 -543 76 -153 244 -278 424 -316 267 -56 545
82 669 333 56 113 61 153 61 535 l0 347 368 4 c336 3 372 5 427 24 170 57 292
161 370 315 152 304 27 671 -280 824 -135 66 -73 64 -1505 63 -1242 0 -1298
-1 -1368 -19z"/>
<path d="M37482 24835 c-112 -25 -208 -79 -298 -169 -92 -92 -144 -186 -169
-303 -29 -137 -12 -269 51 -401 28 -59 56 -96 118 -158 93 -93 186 -145 301
-169 211 -44 406 14 561 169 133 133 192 287 180 469 -11 163 -72 292 -193
407 -148 141 -351 198 -551 155z"/>
<path d="M10480 23613 c-96 -17 -231 -81 -306 -148 -201 -175 -262 -488 -143
-728 64 -130 162 -226 295 -289 120 -57 137 -58 869 -58 741 0 748 1 880 63
140 67 264 203 315 348 31 89 39 259 16 349 -55 216 -200 369 -424 448 -42 14
-129 16 -762 18 -393 1 -726 0 -740 -3z"/>
<path d="M4920 22385 c-8 -2 -49 -9 -90 -15 -343 -56 -676 -295 -854 -613 -80
-143 -135 -332 -151 -519 l-7 -78 -347 0 c-387 0 -409 -3 -541 -67 -145 -70
-273 -229 -315 -390 -25 -94 -20 -247 10 -342 28 -89 103 -210 162 -262 67
-58 155 -109 237 -136 81 -27 82 -27 439 -31 l357 -4 -2 -611 -3 -612 -99 -7
c-506 -36 -944 -407 -1084 -918 -26 -95 -26 -96 -30 -548 -2 -306 0 -471 8
-507 21 -101 83 -211 168 -295 122 -121 262 -180 432 -180 165 0 313 62 431
179 72 73 110 130 148 230 25 66 26 68 31 441 l5 375 96 7 c275 19 537 136
745 330 171 161 281 350 353 608 l26 95 3 1322 3 1321 362 4 c362 3 362 3 437
30 113 40 168 74 250 157 128 129 188 285 177 461 -17 258 -170 457 -424 553
-56 20 -74 21 -488 23 -236 1 -437 1 -445 -1z"/>
<path d="M26435 22380 c-239 -49 -431 -245 -481 -489 -61 -307 128 -612 441
-708 56 -17 109 -18 775 -18 666 0 719 1 775 18 170 53 310 168 384 318 68
139 84 254 55 397 -23 114 -73 211 -154 295 -75 79 -145 126 -248 166 l-67 26
-720 2 c-396 0 -738 -3 -760 -7z"/>
<path d="M36232 22370 c-101 -27 -185 -74 -265 -149 -128 -121 -191 -269 -191
-446 0 -67 6 -120 18 -160 62 -208 221 -367 431 -432 56 -17 109 -18 775 -18
666 0 719 1 775 18 285 88 472 351 451 636 -18 246 -178 453 -419 543 l-62 23
-720 2 c-684 2 -724 1 -793 -17z"/>
<path d="M12890 21144 c-243 -64 -428 -273 -459 -520 -37 -294 139 -569 423
-660 117 -38 259 -38 371 0 109 37 180 83 259 166 74 79 128 177 151 272 19
82 19 218 0 293 -56 219 -231 394 -450 450 -74 19 -222 18 -295 -1z"/>
<path d="M33780 21144 c-215 -56 -391 -232 -447 -447 -10 -38 -16 -99 -15
-157 1 -265 171 -494 425 -576 64 -20 103 -26 177 -27 178 -1 308 52 436 178
126 124 184 262 184 435 0 165 -59 308 -175 426 -122 124 -268 185 -440 183
-49 0 -115 -7 -145 -15z"/>
<path d="M19420 19930 c-373 -5 -375 -6 -441 -31 -102 -39 -158 -76 -234 -153
-114 -115 -175 -264 -175 -426 0 -265 163 -490 425 -586 44 -17 93 -19 425
-24 l375 -5 3 -1226 2 -1226 -112 -12 c-545 -55 -962 -424 -1095 -968 -14 -59
-17 -157 -20 -775 l-4 -708 -614 0 -615 0 0 953 c0 1058 1 1027 -67 1166 -27
55 -59 97 -113 152 -83 83 -138 118 -250 156 -96 33 -251 37 -345 9 -202 -60
-357 -207 -423 -401 l-27 -80 -3 -977 -3 -978 -1229 0 -1229 0 -3 373 c-3 361
-4 374 -26 437 -90 249 -326 420 -582 420 -220 0 -450 -140 -544 -330 -67
-136 -68 -147 -73 -542 l-5 -358 -1567 0 c-1528 0 -1570 -1 -1645 -20 -222
-57 -399 -234 -451 -451 -73 -311 106 -626 415 -732 l65 -22 2822 -3 2821 -2
4 -363 c4 -313 7 -369 22 -417 68 -210 225 -365 431 -426 39 -12 94 -18 160
-18 176 -1 325 63 446 191 77 82 122 164 149 269 18 70 20 111 20 421 l0 343
615 0 615 0 0 -615 0 -615 -347 0 c-395 0 -425 -4 -556 -72 -139 -72 -250
-207 -300 -363 -33 -105 -31 -262 6 -368 56 -161 163 -285 312 -358 145 -72
92 -70 1541 -66 1436 3 1319 -3 1474 73 138 69 257 216 306 379 28 94 24 248
-9 351 -65 198 -236 356 -442 409 -47 12 -129 15 -407 15 l-348 0 0 615 0 615
38 0 c73 0 238 30 335 61 322 103 577 324 727 633 68 139 104 264 121 426 l12
110 614 0 613 0 0 -966 c0 -851 2 -973 16 -1028 99 -383 522 -574 876 -395
128 65 247 200 299 340 23 62 23 75 27 440 l3 376 87 7 c531 42 979 412 1103
911 11 44 23 89 26 100 4 11 9 340 13 730 l5 710 612 3 612 2 4 -692 c3 -672
4 -696 26 -791 115 -511 513 -885 1026 -962 55 -8 117 -15 137 -15 l37 0 4
-697 c3 -621 5 -706 21 -773 90 -383 315 -679 646 -849 152 -78 297 -118 493
-136 l67 -7 0 -613 0 -614 -377 -3 c-433 -4 -437 -5 -579 -100 -93 -62 -155
-132 -205 -233 -88 -178 -90 -363 -6 -540 68 -140 183 -247 335 -309 l77 -31
990 -5 990 -5 3 -45 c18 -314 143 -599 357 -815 106 -107 189 -169 318 -234
147 -75 297 -117 465 -129 l87 -7 5 -370 5 -370 27 -75 c66 -181 211 -323 390
-381 103 -34 282 -34 379 -1 187 64 326 203 393 392 l31 85 3 362 4 363 58 0
c82 0 220 26 324 61 365 122 653 410 777 777 33 96 59 230 59 301 0 25 3 56 6
69 l6 22 608 0 608 0 4 -357 c5 -393 8 -414 71 -543 47 -95 169 -216 267 -263
100 -49 177 -67 280 -67 166 0 308 58 425 174 78 77 115 133 154 235 25 66 26
68 31 441 l5 375 375 5 c373 5 375 6 441 31 102 39 158 76 234 153 187 189
228 481 103 719 -43 80 -164 202 -243 244 -132 69 -123 67 -535 73 l-375 5 -7
85 c-47 613 -526 1096 -1130 1138 l-93 7 -2 1226 -3 1226 88 7 c302 24 573
148 782 356 234 234 360 539 360 870 0 589 -400 1077 -990 1206 -79 18 -140
19 -850 19 -839 0 -819 1 -1010 -62 -306 -103 -590 -357 -719 -645 -64 -144
-111 -337 -111 -459 l0 -59 -1230 0 -1230 0 0 36 c0 67 -31 246 -57 328 -120
385 -430 693 -815 810 -86 27 -255 56 -320 56 -38 0 -38 0 -38 43 0 71 -27
228 -55 317 -59 186 -153 347 -286 485 -212 220 -469 345 -777 376 l-112 12 2
611 3 611 1225 0 1225 0 5 -985 c5 -985 5 -985 27 -1043 65 -171 165 -288 305
-356 105 -51 182 -71 279 -71 155 0 303 58 418 165 81 76 134 156 169 259 l27
81 3 978 3 977 612 -2 612 -3 7 -96 c39 -554 464 -1018 1018 -1113 133 -23
876 -24 965 -1 174 44 329 169 403 325 48 102 62 163 62 277 0 267 -166 494
-424 580 -81 27 -83 27 -438 31 l-356 4 -5 681 c-5 739 -5 750 -63 922 -145
435 -512 752 -962 830 -130 23 -1517 22 -1647 0 -514 -90 -916 -500 -1000
-1018 -8 -51 -15 -113 -15 -139 l0 -48 -614 0 -615 0 -3 368 c-4 347 -5 370
-26 425 -81 217 -235 362 -442 413 -103 26 -263 16 -362 -23 -150 -59 -267
-167 -335 -308 -57 -120 -63 -171 -63 -542 l0 -333 -1230 0 -1230 0 0 345 c0
209 -4 365 -11 397 -35 169 -170 340 -329 416 -47 22 -109 45 -138 51 -76 16
-214 13 -285 -5 -208 -54 -383 -228 -444 -442 -13 -46 -17 -124 -20 -409 l-5
-353 -609 0 c-335 0 -609 2 -609 4 0 2 -5 49 -10 105 -56 547 -448 981 -983
1091 -103 21 -234 25 -617 20z m2830 -3065 l0 -615 -610 0 -610 0 0 615 0 615
610 0 610 0 0 -615z m2460 0 l0 -615 -615 0 -615 0 0 608 c0 335 3 612 7 615
3 4 280 7 615 7 l608 0 0 -615z m7377 -6147 l-2 -1843 -1842 -2 -1843 -3 0
1845 0 1845 1845 0 1845 0 -3 -1842z"/>
<path d="M30096 11314 c-273 -66 -465 -313 -466 -599 0 -151 58 -300 161 -410
122 -130 270 -197 439 -199 117 -1 180 14 289 67 117 57 211 151 268 268 53
109 68 172 67 289 -2 169 -69 317 -199 439 -70 65 -174 122 -270 146 -73 18
-210 18 -289 -1z"/>
<path d="M34993 19911 c-215 -62 -381 -234 -434 -451 -7 -30 -13 -93 -13 -140
0 -47 6 -110 13 -140 55 -223 226 -397 446 -455 77 -20 230 -19 309 1 150 39
312 166 384 301 187 353 -6 790 -393 888 -80 20 -233 18 -312 -4z"/>
<path d="M37460 19914 c-179 -49 -318 -166 -397 -329 -62 -131 -63 -139 -63
-880 0 -741 1 -749 63 -880 68 -142 181 -246 332 -307 77 -31 85 -33 220 -33
135 0 143 2 220 33 197 79 337 244 380 447 22 103 22 1376 0 1480 -19 90 -81
215 -140 282 -57 65 -174 144 -256 173 -84 30 -277 37 -359 14z"/>
<path d="M8050 18700 c-198 -24 -387 -157 -473 -331 -167 -340 -10 -727 350
-861 55 -21 79 -23 433 -28 l375 -5 3 -612 2 -611 -362 -4 -363 -3 -85 -31
c-270 -96 -435 -340 -417 -618 16 -255 168 -451 424 -549 l58 -22 1325 -3
c1185 -2 1333 -1 1398 13 216 48 402 229 458 446 20 76 22 213 5 289 -39 170
-167 333 -323 409 -128 64 -187 71 -564 71 l-324 0 0 615 0 615 351 0 c391 0
416 3 543 67 95 48 219 172 264 264 119 246 73 533 -116 716 -101 99 -224 156
-369 173 -104 12 -2494 11 -2593 0z"/>
<path d="M17880 18699 c-230 -25 -437 -195 -511 -420 -32 -97 -34 -274 -5
-359 51 -150 131 -259 251 -338 114 -77 184 -97 335 -97 105 0 137 4 198 24
290 95 470 405 408 701 -66 316 -353 523 -676 489z"/>
<path d="M6154 17470 c-352 -39 -671 -226 -875 -513 -71 -99 -153 -273 -184
-387 -14 -52 -30 -145 -37 -207 l-12 -111 -360 -4 c-312 -4 -369 -7 -416 -22
-231 -75 -395 -258 -436 -486 -56 -315 141 -621 452 -700 70 -18 111 -20 421
-20 l343 0 0 -615 0 -615 -615 0 -615 0 0 348 c0 382 -5 422 -61 535 -64 130
-162 226 -295 289 -338 160 -752 -36 -849 -402 -12 -44 -15 -139 -15 -480 0
-443 4 -491 46 -637 57 -197 161 -371 314 -523 110 -109 198 -171 342 -240
118 -56 212 -84 348 -105 141 -22 3271 -22 3373 0 117 25 211 77 303 169 92
92 144 186 169 303 29 137 12 269 -51 401 -51 106 -168 224 -274 276 -123 60
-171 66 -552 66 l-338 0 0 1230 0 1230 348 0 c382 0 422 5 535 61 130 64 222
157 283 284 143 298 25 656 -265 809 -129 67 -143 69 -571 72 -212 1 -417 -1
-456 -6z"/>
<path d="M11724 17470 c-227 -33 -419 -193 -495 -410 -27 -80 -37 -246 -19
-329 47 -220 232 -409 455 -466 87 -22 3877 -23 3971 0 214 50 383 209 450
423 25 79 29 218 10 305 -53 239 -252 429 -491 472 -67 12 -373 14 -1955 13
-1031 0 -1898 -4 -1926 -8z"/>
<path d="M35075 16244 c-263 -41 -475 -245 -521 -504 -56 -315 141 -621 452
-700 334 -86 670 119 750 458 23 94 14 244 -18 333 -70 189 -218 332 -402 388
-68 21 -203 34 -261 25z"/>
<path d="M37511 16239 c-170 -30 -344 -152 -429 -300 -172 -303 -55 -697 253
-851 103 -52 152 -63 280 -63 128 0 177 11 280 63 197 98 334 320 335 540 0
83 -28 200 -68 282 -69 141 -222 267 -382 314 -69 20 -199 28 -269 15z"/>
<path d="M36265 15006 c-139 -32 -238 -88 -328 -185 -67 -73 -99 -128 -132
-224 -52 -155 -41 -317 33 -467 52 -107 169 -224 274 -274 103 -49 200 -69
308 -63 521 31 769 654 410 1031 -78 81 -148 127 -249 162 -89 31 -230 40
-316 20z"/>
<path d="M37480 13774 c-168 -36 -340 -171 -414 -326 -115 -239 -75 -503 104
-691 78 -83 147 -127 252 -164 103 -36 270 -38 373 -4 97 32 167 74 244 147
195 184 244 464 125 712 -51 106 -168 224 -274 276 -129 63 -271 80 -410 50z"/>
<path d="M35002 12540 c-99 -26 -184 -73 -259 -143 -81 -76 -130 -151 -167
-257 -26 -73 -30 -99 -30 -190 0 -71 6 -124 18 -165 61 -207 221 -367 431
-432 56 -17 109 -18 780 -18 l720 0 80 27 c308 105 484 423 405 732 -53 209
-190 356 -407 439 -58 22 -64 22 -778 24 -684 2 -724 1 -793 -17z"/>
<path d="M2600 7030 l0 -4300 4295 0 4295 0 0 4300 0 4300 -4295 0 -4295 0 0
-4300z m7370 0 l0 -3070 -3075 0 -3075 0 0 3070 0 3070 3075 0 3075 0 0 -3070z"/>
<path d="M5050 7030 l0 -1840 1845 0 1845 0 0 1840 0 1840 -1845 0 -1845 0 0
-1840z"/>
<path d="M13445 11314 c-388 -72 -708 -308 -882 -650 -80 -158 -116 -279 -132
-454 -56 -590 337 -1145 916 -1295 148 -39 272 -45 924 -45 l606 0 12 -109
c57 -529 404 -935 921 -1079 l95 -26 452 -4 c386 -3 462 -1 515 12 220 55 391
228 448 452 52 202 -10 423 -160 575 -71 72 -128 109 -229 148 -66 25 -68 26
-441 31 l-375 5 -3 45 c-18 317 -143 601 -362 820 -214 215 -478 337 -780 359
l-85 6 -7 96 c-35 455 -336 868 -756 1037 -157 63 -259 84 -437 88 -113 2
-183 -1 -240 -12z"/>
<path d="M22720 11314 c-213 -56 -391 -233 -445 -443 -21 -82 -21 -226 0 -306
57 -215 217 -377 438 -443 41 -12 127 -16 409 -19 l357 -5 6 -56 c20 -195 53
-327 114 -457 166 -352 483 -602 871 -686 100 -22 126 -23 525 -24 470 0 481
1 620 73 96 50 209 164 258 260 169 338 10 729 -350 864 -55 21 -79 23 -433
28 l-375 5 -7 93 c-43 562 -461 1019 -1022 1117 -125 21 -883 21 -966 -1z"/>
<path d="M37467 11314 c-164 -39 -323 -166 -397 -316 -73 -149 -70 -75 -70
-1508 0 -1431 -3 -1359 69 -1505 50 -101 112 -171 206 -233 115 -78 184 -97
340 -97 156 0 225 19 340 97 94 62 156 132 206 233 72 146 69 74 69 1505 0
1433 3 1359 -70 1508 -75 152 -234 277 -401 317 -79 18 -215 18 -292 -1z"/>
<path d="M22705 8851 c-108 -32 -184 -78 -270 -165 -125 -126 -176 -249 -176
-426 0 -174 55 -307 180 -431 123 -123 257 -179 427 -179 178 0 309 54 435
180 122 121 179 259 179 433 0 171 -56 304 -180 427 -83 84 -174 138 -276 164
-83 21 -241 20 -319 -3z"/>
<path d="M12960 7641 c-305 -43 -531 -298 -532 -601 -1 -113 18 -192 68 -292
51 -102 163 -212 264 -261 132 -64 154 -67 542 -67 l347 0 4 -1307 c4 -1433 0
-1346 63 -1538 122 -371 428 -673 794 -785 180 -55 183 -55 655 -55 427 0 442
1 510 22 191 61 348 217 408 408 31 99 31 261 0 360 -60 190 -212 343 -403
407 -61 21 -87 22 -432 26 l-368 3 0 615 0 614 348 0 c382 0 423 5 534 60 206
102 331 289 345 516 11 169 -46 328 -159 449 -77 82 -151 131 -258 169 l-85
31 -362 3 -363 4 0 52 c0 128 -52 335 -119 473 -168 347 -478 589 -866 675
-80 18 -133 21 -485 23 -217 2 -420 0 -450 -4z"/>
<path d="M17875 7640 c-147 -22 -251 -75 -355 -179 -129 -130 -187 -284 -177
-466 15 -247 172 -457 407 -543 l75 -27 985 -5 985 -5 5 -370 c5 -355 6 -373
28 -435 130 -361 524 -522 865 -353 107 54 214 164 267 275 62 128 69 189 70
566 l0 322 348 0 c388 0 410 3 542 67 145 70 273 230 315 393 26 98 17 272
-18 362 -70 182 -207 313 -391 376 l-81 27 -1910 1 c-1050 1 -1932 -2 -1960
-6z"/>
<path d="M24020 7641 c-205 -28 -386 -160 -475 -346 -61 -130 -60 -113 -60
-885 0 -787 -3 -744 72 -894 49 -97 162 -210 260 -259 337 -167 732 -9 861
344 l27 74 3 719 c3 799 5 773 -65 916 -49 101 -159 213 -261 264 -116 58
-246 82 -362 67z"/>
<path d="M36330 7644 c-95 -15 -145 -31 -219 -66 -148 -71 -266 -214 -317
-383 -27 -89 -25 -249 3 -340 65 -207 241 -372 449 -421 160 -37 350 -1 487
92 202 139 304 393 253 633 -47 220 -227 411 -441 464 -66 17 -176 28 -215 21z"/>
<path d="M35040 6405 c-181 -34 -347 -160 -429 -326 -63 -126 -70 -186 -71
-566 l0 -322 -1307 -4 c-1289 -3 -1309 -3 -1398 -24 -509 -119 -872 -498 -960
-1000 -8 -47 -15 -112 -15 -144 l0 -59 -952 0 c-1041 0 -1028 0 -1152 -58
-124 -59 -230 -160 -288 -277 -52 -103 -63 -152 -63 -280 0 -91 5 -133 19
-175 60 -175 165 -298 321 -376 136 -67 43 -64 1805 -64 1044 0 1625 4 1680
10 193 24 395 101 557 212 163 111 326 304 408 480 70 153 115 333 115 464 l0
64 614 0 614 0 4 -362 c5 -402 5 -406 76 -543 43 -84 152 -197 232 -242 99
-56 182 -77 305 -78 87 0 125 5 180 22 159 50 296 166 365 307 75 153 71 50
68 1537 l-3 1334 -26 66 c-14 37 -38 88 -54 115 -39 68 -138 168 -205 209
-127 77 -295 108 -440 80z"/>
<path d="M37511 6409 c-122 -21 -254 -93 -341 -185 -68 -73 -110 -144 -142
-239 -32 -98 -33 -259 -1 -360 82 -258 321 -435 588 -435 385 0 676 354 601
730 -45 226 -213 409 -436 474 -69 20 -199 28 -269 15z"/>
<path d="M17825 5174 c-118 -26 -209 -77 -301 -168 -132 -132 -192 -285 -181
-466 26 -443 491 -710 890 -513 103 52 221 171 270 273 119 251 67 538 -132
723 -74 68 -128 99 -226 132 -99 34 -222 41 -320 19z"/>
<path d="M21555 5184 c-219 -34 -403 -181 -488 -389 l-32 -80 -3 -377 -3 -377
-982 -3 -982 -3 -65 -22 c-195 -67 -338 -212 -406 -413 -27 -78 -27 -272 0
-350 68 -201 211 -346 406 -413 l65 -22 1005 -3 c1066 -3 1109 -2 1283 44 121
32 310 126 418 208 238 180 398 437 459 736 19 93 21 135 20 524 0 345 -3 433
-15 481 -56 212 -215 376 -425 439 -56 17 -201 28 -255 20z"/>
<path d="M26435 5175 c-136 -30 -239 -88 -328 -185 -114 -123 -162 -251 -161
-425 0 -92 5 -122 27 -183 37 -105 82 -174 162 -250 83 -79 165 -125 271 -152
73 -19 113 -20 764 -20 651 0 691 1 764 20 115 29 189 73 282 165 92 91 144
184 169 302 40 190 -15 394 -146 537 -75 82 -151 132 -259 170 l-85 31 -700 2
c-554 1 -713 -1 -760 -12z"/>
<path d="M23955 3940 c-136 -36 -229 -91 -313 -186 -103 -115 -155 -253 -155
-409 0 -268 161 -491 420 -582 l78 -28 696 -3 c592 -2 708 0 769 12 181 38
342 160 422 321 52 103 63 152 63 280 0 128 -11 177 -63 280 -58 117 -164 218
-288 277 -121 57 -136 58 -879 57 -631 0 -685 -1 -750 -19z"/>
<path d="M37482 3945 c-171 -37 -341 -171 -416 -327 -115 -239 -75 -503 104
-691 78 -82 147 -127 252 -165 62 -22 90 -26 188 -26 64 0 135 6 160 13 95 27
190 81 263 151 82 78 127 147 165 252 22 63 26 89 26 193 0 104 -4 130 -26
193 -38 105 -83 174 -165 252 -148 141 -351 198 -551 155z"/>
</g>
</svg>
